# xmcd
#
# Track frame offsets: 
#        150
#        14662
#        31597
#        48125
#        63893
#        79760
#        97647
#        112496
#        126803
#        144948
#        158657
#
# Disc length: 2326 seconds
#
# Revision: 4
# Processed by: cddbd v1.5.2PL0 Copyright (c) Steve Scherf et al.
# Submitted via: ExactAudioCopy v0.99pb5
#
DISCID=7f09140b
DTITLE=Julianne Hough - Julianne Hough
DYEAR=2008
DGENRE=Country
TTITLE0=That Song In My Head
TTITLE1=You, You, You
TTITLE2=Hide Your Matches
TTITLE3=My Hallelujah Song
TTITLE4=Jimmy Ray Mcgee
TTITLE5=Dreaming Under The Same Moon (Feat. Derek Hough)
TTITLE6=About Life
TTITLE7=Hello
TTITLE8=Help Me, Help You
TTITLE9=Love Yourself
TTITLE10=I'd Just Be With You
EXTD=YEAR: 2008
EXTT0=
EXTT1=
EXTT2=
EXTT3=
EXTT4=
EXTT5=
EXTT6=
EXTT7=
EXTT8=
EXTT9=
EXTT10=
PLAYORDER=
